/* XPM */
static char *_67b46ec0e86432edeb9b69f05d14678CBGj047KvGCK6AnX[] = {
/* columns rows colors chars-per-pixel */
"64 64 55 1 ",
"  c #F53F36",
". c #F53F37",
"X c #F44236",
"o c #F54236",
"O c #F44336",
"+ c #F74236",
"@ c #B95965",
"# c #B95A65",
"$ c #B95B65",
"% c #B95C65",
"& c #A16478",
"* c #A16578",
"= c #A16678",
"- c #D54E4F",
"; c #D54F4F",
": c #D4504F",
"> c #D54D50",
", c #6B7CA2",
"< c #6A7DA2",
"1 c #8C6D88",
"2 c #8C6E88",
"3 c #5D83AD",
"4 c #498BBD",
"5 c #5784B1",
"6 c #5785B1",
"7 c #3394CE",
"8 c #3893CA",
"9 c #209BDD",
"0 c #159FE4",
"q c #189EE2",
"w c #189FE3",
"e c #1C9DE0",
"r c #0EA3EA",
"t c #0CA4EB",
"y c #0BA5ED",
"u c #0CA5EC",
"i c #12A1E7",
"p c #15A2E6",
"a c #18A1E4",
"s c #12A2E8",
"d c #13A3E9",
"f c #11A4E9",
"g c #05A7F1",
"h c #04A7F3",
"j c #04A7F4",
"k c #04A7F5",
"l c #02A8F3",
"z c #04A8F2",
"x c #05A8F3",
"c c #06A8F2",
"v c #01A8F4",
"b c #02A9F4",
"n c #03A9F4",
"m c #428DC1",
"M c #428EC2",
/* pixels */
"OOOOOOOOOOOOOOOOOOOOO%%*%@OOOOOOOOOOOOOOOOOOOOOOOOOOOOOOOOOOOOOO",
"OOOOOOOOOOOOOOOOOO%22%**O5OO:OOOOOOOOOOOOOOOOOOOOOOOOOOOOOOOOOOO",
"OOOOOOOOOOOOOOOO%2,12iiyaa%%%OOOOOOOOOOOOOOOOOOOOOOOOOOOOOOOOOOO",
"OOOOOOOOOOOOOOO13,allwtaOlO5O:OOOOOOOOOOOOOOOOOOOOOOOOOOOOOOOOOO",
"OOOOOOOOOOOOOO&,pcl9plnnllnpM%OOOOOOO:OOOOOOOOOOOOOOOOOOOOOOOOOO",
"OOOOOOOOOOOOO>&hllcnlnnnnnnnyOOOOOO:OO%%%OOOOOOOOOOOOOOOOOOOOOOO",
"OOOOOOOOOOO   rhOnnnlnnnnnnn9OOOOO-:%4%O&%OOOOOOOOOOOOOOOOOOOOOO",
"OOOOOOOOOOO O59Olnnnnnnlnnn:OOOOOOO811iw911%OOOOOOOOOOOOOOOOOOOO",
"OOOOOOOOO .+OOOknnnnnnlcnl%%OOOOOO3O9nf7p9O%%OOOOOOOOOOOOOOOOOOO",
"OOOOOOOOO OOOOchcnnnnnchcpO55OOOOOO9nncnlcl%1%OOOOOOOOOOOOOOOOOx",
"OOOOOOOOO+O Oe0ccnlcf%%wlccc9OOOOOOnnnllnnlc%%OOOOOOOOOOOOOOOOOx",
"OOOOOOOO.++O59O9llf1pcl9OOOOOOOOOO:Onnnllllnc%%OOOOOOOOOOOOOOOOx",
"OOOOOOO+ OOOOO5uui%9c9OOOOOOOOOOO5O%%lclnnnnl9OOOOOOOOOOOOOOOOOO",
"OOOOOOOO+O OOOO -%5u9OOOOOOOOOOOOO9ty8lcnlcln9OOOOOOOOOOOOOOOOOO",
"OOOOOOO  OOOO O OOOOOOOOO:%%OOOOOOOOllllnnllOOOOOOOOOOOOOOOOOOOO",
"OOOOOOOOOOOOO OOOOOOOOO:%%OOOOOOOOOOO9clnnnp%OOOOO:%%OOOOOOOOOOO",
"OOOOOOOOO OOOOOOOOOOOO-&2M99:%%OOOOOOOO9cccl9OOO:%%O%OOOOOOOOOOO",
"OOOOOOO.%OOOOO OOOOOOOO599OOOOOOOOOOOOOOO%%9l9O:=2799*@%OOOOOOOO",
"OOOO++@+@OOO OOOOOOOOO599nnn9e%%OOOOOOOOOOOOOOOO5aa%9%O%OOOOOOOO",
"OOOO+@1@aOO%O OOOOOOOOOOnnnnn99OOOOOOOOOOOOOOOO599lllcw%1OOOOOOO",
"OOOOO1f%9OO%O OOOOOOOOOcnnnnnn9OOOOOOOOOOOOOOOOOOlnnnnl92OOOOOOO",
"OOOO@uwanO0@@OOOOOOOOO:%nnnnnOOOOOOOOOOOOOOOOOOOnlnnnnnn%%OOOOOO",
"OOOO@n9lnnw9@ OOOOOOO599Olnl%%OOOOOOOOOOOOOOOOO:%cnnnnnl92OOOOOO",
"OOOOacnncnkc@OOOOOOOOOO5ulcpOOOOOOOOOOO:OOOOOO599%ncnnnnc2OOOOOO",
"OOOOwihnnnnnOOOOOOOOOOOOO:%Muc9OOOOOO:%%OOOOOOOOuunnnnnnl%%OOOOO",
"OOOOhnlcnnnsOOOOOOOOOOOOOOOOO:OOOOOO==%5OO:OOOOOO9unnnnnla%OOOOO",
"OOOOhlnnnnn1@OOOOOOO:%OOOOO:OOOOOOO%,M99O%%OOOOOO9%nnnnnll%OOOOO",
"OOO9pnnnnnn91OOOOO:%OOOOOO::O6OO:OO%y99nOMO:OOOOO99lnnnnlc%OOOOO",
"OOO9%nnnlnnn#1OOO:&%59O:%OO5OOOOOOO9lOnnn9M%OOOOOO9wnnlnlcOOOOOO",
"OOO9%9nlnnnnw=OOOO59OOOOOO5OOnO5O:O9OlnncnyOOOOOOO9lnnnnl9OOOOOO",
"OOO9Ownnnnllh #OO59Onn69:%OOnnnO5OOOnnncll9OOOOOOOw%llclw9OOOOOO",
"OOOO9wwnlnnnt9-OOOOnnnn69OOnnnnn5OOMlnnnl9OOOOOOO99O9ll%w9OOOOOO",
"OOOO99wwnnnncuOOOOnbnnnn9O:OnncOOO9p+lll%%OOOOOOOOO9cliO99OOOOOO",
"OOOOX99hnnnnl5OOO:%bnnnOO5OOOnO:OO9O9lnp%55OOOOOOOOOO%%9l9OOOOOO",
"OOOOXX9wphhnaOOO69OOnn:%OOO554OOOOOO99f%9c9OOOOO:OOOOOOO+OOOOOOO",
"OOOOXX5 9ah99OOOOO5yypOOOOOOO:%45OOOO+%O99OOOO:O%OOOOOOOOOOOOOOO",
"OOOOOOOO638O99OOOOOO:%6u9OOO%:OOOOOOOOOOOOOOO:*O4OO:OOOOOOOOOOOO",
"OOOOOOOOOO-O55OOOOOOOOOOOOO%&:95O%:OOOOOOOOOO%8%aOO%OOOOOOOOOOOO",
"OOOOOOOOOOOOOOOOOOOOOOOOOOOO95OOOOOOOOOOOOOOO7f%lO5%:OOOOOOOOOOO",
"OOOOOOOOOOOOOOOOOOOOOOOOOOO95Onn95%:OOOOOOOO%ufbllaM%OOOOOOOOOOO",
"OOOOOOOOOOOOOOOOOOOOOOOOOOOOOcnnc95OOOOOOOOO2clbcllt%OOOOOOOOOOO",
"OOOOOOOOOOOOOOOOOOOOOOOOOOOOnnnnnn5OOOOOOOO%ulcbnllc%OOOOOOOOOOO",
"OOOOOOOOOOOOOOOOOOOOOOOOOOO%:nnnnOOOOOOO++%3labbnnlcOOOOOOOOOOOO",
"OOOOOOOOOOOOOOOO%OOOOOOOOO95OOnn%:OOOOOO+139lbbbnnlaOOOOOOOOOOOO",
"OOOOOOOOOOOOOO%O%%OOOOOOOOOO9uc4OOOOOOOO%2azzzbblnn5OOOOOOOOOOOO",
"OOOOOOOOOOOOO%2%9O%2OOOOOOOOOO@:9y6OOOOO+gz9lzbbnnl9OOOOOOOOOOOO",
"OOOOOOOOOOOOO%i%aaO%2%%%%%%:+OOOOOOOOOOO99Ozlbbbca99OOOOOOOOOOOO",
"OOOOOOOOOOOOO99al%ca222%%:OOOOOOOOOOOOOO+Ozzlbbbiac9OOOOOOOOOOOO",
"OOOOOOOOOOOOO99znnucyfsts0wM%%:OOOOOOOOOOlllnncl%99OOOOOOOOOOOOO",
"OOOOOOOOOOOOOOllnnllncw095OOOOOOOOOOOOOOawncnlf19l9OOOOOOOOOOOOO",
"OOOOOOOOOOOOO%clnnnnnnnnnlhnpM%:OOOOOOO99O9cnu1O99OOOOOOOOOOOOOO",
"OOOOOOOOOOOO9%%llnnlnnnnnnnhn95OOOOOOOOOO9hcf%9c9OOOOOOOOOOOOOOO",
"OOOOOOOOOOOO999acnnnnnncnlnnnn5OOOOOOOOOOOO%%9l9OOOOOOOOOOOOOOOO",
"OOOOOOOOOOOOOOlllslnlnnnnnnckOOOOOOOOOOOOOOOOOOOOOOOOOOOOOOOOOOO",
"OOOOOOOOOOOOOOOOllnnnnlllnlc#:OOOOOOOOOOOOOOOOOOOOOOOOOOOOOOOOOO",
"OOOOOOOOOOOOOOOOOOwlnnllnnc4OOOOOOOOOOOOOOOOOOOOOOOOOOOOOOOOOOOO",
"OOOOOOOOOOOOOOOOOOOO%%whhhhhlu5OOOOOOOOOOOOOOOOOOOOOOOOOOOOOOOOO",
"OOOOOOOOOOOOOOOOOOOOOOOOOOOOOOOOOOOOOOOOOOOOOOOOOOOOOOOOOOOOOOOO",
"OOOOOOOOOOOOOOOOOOOOOOOOOOOOOOOOOOOOOOOOOOOOOOOOOOOOOOOOOOOOOOOO",
"OOOOOOOOOOOOOOOOOOOOOOOOOOOOOOOOOOOOOOOOOOOOOOOOOOOOOOOOOOOOOOOO",
"OOOOOOOOOOOOOOOOOOOOOOOOOOOOOOOOOOOOOOOOOOOOOOOOOOOOOOOOOOOOOOOO",
"OOOOOOOOOOOOOOOOOOOOOOOOOOOOOOOOOOOOOOOOOOOOOOOOOOOOOOOOOOOOOOOO",
"OOOOOOOOOOOOOOOOOOOOOOOOOOOOOOOOOOOOOOOOOOOOOOOOOOOOOOOOOOOOOOOO",
"OOOOOOOOOOOOOOOOOOOOOOOOOOOOOOOOOOOOOOOOOOOOOOOOOOOOOOOOOOOOOOOO"
};
